{
  "title": "Utopia.Season.2.Complete.720p.HDTV.x264-SCENE",
  "uid": 10762858,
  "size": 4916632039,
  "categoryP": "video",
  "categoryS": "hd___tv_shows",
  "magnet": "?xt=urn:btih:22aeb31650ac458854ae4cc7c33099c156aaf2e8&amp;dn=Utopia.Season.2.Complete.720p.HDTV.x264-SCENE&amp;tr=udp%3A%2F%2Ftracker.openbittorrent.com%3A80&amp;tr=udp%3A%2F%2Fopen.demonii.com%3A1337&amp;tr=udp%3A%2F%2Ftracker.coppersurfer.tk%3A6969&amp;tr=udp%3A%2F%2Fexodus.desync.com%3A6969",
  "seeders": 142,
  "leechers": 25,
  "uploader": "th3d4m4g3r",
  "files": -1,
  "time": 1407989944,
  "description": "My connection is slow. Please be patient. Please seed to at least 1.5 ratio so others can enjoy the show too. Thank You.\n\n-------------------------------------------\n\nUtopia.Season.2.Complete.720p.HDTV.x264-SCENE\nAired: 2014-07-14 - 2013-08-12\n\n-------------------------------------------\n\nFiles:\n\nUtopia.2x01.REPACK.720p_HDTV_x264-FoV.mkv\nUtopia.S02E02.720p.HDTV.x264-TLA.mkv\nUtopia.S02E03.720p.HDTV.x264-TLA.mkv\nUtopia.S02E04.720p.HDTV.x264-TLA.mkv\nUtopia.2x05.720p_HDTV_x264-FoV.mkv\nUtopia.2x06.720p_HDTV_x264-FoV.mkv\n\n-------------------------------------------\n\nMediaInfo:\n\nGeneral\nComplete name                            : Utopia.2x01.REPACK.720p_HDTV_x264-FoV.mkv\nFormat                                   : Matroska\nFile size                                : 928 MiB\nDuration                                 : 53mn 1s\nOverall bit rate                         : 2 447 Kbps\n\nVideo\nFormat                                   : AVC\nFormat profile                           : &lt;a class=&quot;__cf_email__&quot; href=&quot;/cdn-cgi/l/email-protection&quot; data-cfemail=&quot;aae2c3cdc2eae69e849b&quot;&gt;[email&amp;#160;protected]&lt;/a&gt;&lt;script cf-hash='f9e31' type=&quot;text/javascript&quot;&gt;\n/* &lt;![CDATA[ */!function(){try{var t=&quot;currentScript&quot;in document?document.currentScript:function(){for(var t=document.getElementsByTagName(&quot;script&quot;),e=t.length;e--;)if(t[e].getAttribute(&quot;cf-hash&quot;))return t[e]}();if(t&amp;&amp;t.previousSibling){var e,r,n,i,c=t.previousSibling,a=c.getAttribute(&quot;data-cfemail&quot;);if(a){for(e=&quot;&quot;,r=parseInt(a.substr(0,2),16),n=2;a.length-n;n+=2)i=parseInt(a.substr(n,2),16)^r,e+=String.fromCharCode(i);e=document.createTextNode(e),c.parentNode.replaceChild(e,c)}}}catch(u){}}();/* ]]&gt; */&lt;/script&gt;\nFormat settings, CABAC                   : Yes\nFormat settings, ReFrames                : 5 frames\nBit rate                                 : 2 014 Kbps\nWidth                                    : 1 280 pixels\nHeight                                   : 720 pixels\nDisplay aspect ratio                     : 16:9\nFrame rate mode                          : Constant\nFrame rate                               : 25.000 fps\nColor space                              : YUV\nChroma subsampling                       : 4:2:0\nBit depth                                : 8 bits\nScan type                                : Progressive\nBits/(Pixel*Frame)                       : 0.087\nStream size                              : 764 MiB (82%)\nWriting library                          : x264 core 142 r2431 ac76440\nEncoding settings                        : cabac=1 / ref=5 / deblock=1:0:0 / analyse=0x3:0x113 / me=umh / subme=8 / psy=1 / psy_rd=1.00:0.00 / mixed_ref=1 / me_range=16 / chroma_me=1 / trellis=1 / 8x8dct=1 / cqm=0 / deadzone=21,11 / fast_pskip=1 / chroma_qp_offset=-2 / threads=12 / lookahead_threads=2 / sliced_threads=0 / nr=0 / decimate=1 / interlaced=0 / bluray_compat=0 / constrained_intra=0 / bframes=3 / b_pyramid=2 / b_adapt=2 / b_bias=0 / direct=3 / weightb=1 / open_gop=0 / weightp=2 / keyint=250 / keyint_min=25 / scenecut=40 / intra_refresh=0 / rc_lookahead=50 / rc=crf / mbtree=1 / crf=18.0 / qcomp=0.60 / qpmin=0 / qpmax=69 / qpstep=4 / ip_ratio=1.40 / aq=1:1.00\n\nAudio\nFormat                                   : AC-3\nBit rate mode                            : Constant\nBit rate                                 : 384 Kbps\nChannel(s)                               : 6 channels\nChannel positions                        : Front: L C R, Side: L R, LFE\nSampling rate                            : 48.0 KHz\nBit depth                                : 16 bits\nCompression mode                         : Lossy\nStream size                              : 146 MiB (16%)",
  "parsed": {
    "xt": "urn:btih:22aeb31650ac458854ae4cc7c33099c156aaf2e8",
    "dn": "Utopia.Season.2.Complete.720p.HDTV.x264-SCENE",
    "tr": [
      "udp://exodus.desync.com:6969",
      "udp://open.demonii.com:1337",
      "udp://tracker.coppersurfer.tk:6969",
      "udp://tracker.openbittorrent.com:80"
    ],
    "infoHash": "22aeb31650ac458854ae4cc7c33099c156aaf2e8",
    "infoHashBuffer": {
      "type": "Buffer",
      "data": [
        34,
        174,
        179,
        22,
        80,
        172,
        69,
        136,
        84,
        174,
        76,
        199,
        195,
        48,
        153,
        193,
        86,
        170,
        242,
        232
      ]
    },
    "name": "Utopia.Season.2.Complete.720p.HDTV.x264-SCENE",
    "announce": [
      "udp://exodus.desync.com:6969",
      "udp://open.demonii.com:1337",
      "udp://tracker.coppersurfer.tk:6969",
      "udp://tracker.openbittorrent.com:80"
    ],
    "urlList": []
  },
  "previous": 167,
  "peers": 50,
  "last_updated": "2016-12-24T19:40:26.706Z"
}